<svg xmlns="http://www.w3.org/2000/svg" width="157.589" height="96.376" viewBox="0 0 157.589 96.376">
  <g id="fi_awards" data-name="fi awards" transform="translate(-353.436 -34.023)">
    <g id="Group_18366" data-name="Group 18366" transform="translate(353.436 34.023)">
      <path id="Path_18962" data-name="Path 18962" d="M398.721,54.285l3.537,3.461-17.47,23.235Zm22.244,19.448-3.551-3.142L391.757,91.8Zm-5.951-5.463q-7.679,2.567-15.359,5.136,2.4-7.108,4.8-14.214c-12.69,17.47-25.2,34.96-39.164,52.293,15.578-15.732,32.378-29.843,49.726-43.216m7.925-34.247,1.554,15.1,15.743,1.225-14.61,7.2,2.488,14.914L417.534,61.816l-14.2,7.989L411.4,56.023l-11.268-9.973L415.7,48.177Z" transform="translate(-343.047 -34.023)" fill="#f3a700"/>
      <line id="Line_3" data-name="Line 3" x2="157.103" transform="translate(0 88.149)" fill="none" stroke="#f3a700" stroke-width="0.017"/>
      <path id="Path_18963" data-name="Path 18963" d="M360.267,79.473h-6.332V57.559H368v3.26h-7.729v6.022h6.984v3.29h-6.984Z" transform="translate(-352.999 -13.389)" fill="#040504"/>
      <path id="Path_18964" data-name="Path 18964" d="M368.586,79.472h-6.332V57.56h8.008a20.115,20.115,0,0,1,5.215.5,5.433,5.433,0,0,1,4.285,5.775c0,2.731-1.118,4.9-3.23,5.928l4.656,9.714h-6.829l-3.631-8.659h-2.141Zm0-11.453h1.366a3.67,3.67,0,0,0,2.173-.527q1.117-.884,1.118-3.26c0-1.706-.405-2.792-1.18-3.32a4.539,4.539,0,0,0-2.265-.435h-1.212Z" transform="translate(-345.706 -13.389)" fill="#040504"/>
      <path id="Path_18965" data-name="Path 18965" d="M376.366,79.473h-4.221l7.6-21.914h6.424l7.448,21.914h-6.859L384.9,73.856h-6.8ZM384,70.566c-1.179-3.973-2.016-6.8-2.483-8.505-.248.9-1.055,3.725-2.451,8.505Z" transform="translate(-337.035 -13.39)" fill="#040504"/>
      <path id="Path_18966" data-name="Path 18966" d="M384.119,79.473V57.559h8.008q6.379,12.994,7.047,14.681c-.1-2.761-.158-7.634-.158-14.681h3.757V79.473h-6.921q-6.382-13.174-8.04-17.008c.062,3.166.094,8.847.094,17.008Z" transform="translate(-326.538 -13.39)" fill="#040504"/>
      <path id="Path_18967" data-name="Path 18967" d="M411.857,61.7a11.4,11.4,0,0,0-4.686-1.055c-3.6,0-5.587,2.2-5.587,8.07,0,5.371,1.86,8.04,5.617,8.04a10.135,10.135,0,0,0,4.842-1.118v2.886a7.49,7.49,0,0,1-2.824,1.149,14.909,14.909,0,0,1-3.352.405c-7.045,0-10.832-3.2-10.832-11.176,0-7.82,4-11.577,10.924-11.577a10.877,10.877,0,0,1,5.9,1.49Z" transform="translate(-316.968 -13.592)" fill="#040504"/>
      <path id="Path_18968" data-name="Path 18968" d="M411.191,79.473h-6.332V57.559h6.332v8.908h5.9V57.559h6.425V79.473h-6.425V69.789h-5.9Z" transform="translate(-308.356 -13.389)" fill="#040504"/>
      <rect id="Rectangle_5667" data-name="Rectangle 5667" width="6.393" height="21.914" transform="translate(117.765 44.17)" fill="#040504"/>
      <path id="Path_18969" data-name="Path 18969" d="M420.505,75.269a13.542,13.542,0,0,0,6.488,1.676c2.141,0,3.226-.839,3.226-2.483,0-1.21-.867-1.955-2.607-2.7l-1.832-.775c-3.941-1.646-5.275-3.725-5.275-7.233a5.8,5.8,0,0,1,2.2-4.656,9.5,9.5,0,0,1,6.114-1.77,9.279,9.279,0,0,1,5.493,1.49v2.856a12.837,12.837,0,0,0-5.181-1.15c-2.081,0-3.136.777-3.136,2.329,0,1.087.683,1.644,2.421,2.421l1.924.837a11.8,11.8,0,0,1,4.037,2.672,6.282,6.282,0,0,1,1.272,4.159c0,4.314-3.01,7.137-8.755,7.137a10.644,10.644,0,0,1-6.392-1.8Z" transform="translate(-294.64 -13.592)" fill="#040504"/>
      <path id="Path_18970" data-name="Path 18970" d="M444.287,79.473H429.42V57.559h14v3.26h-7.666v5.649h7.17v3.321h-7.17v6.425h8.535Z" transform="translate(-286.824 -13.389)" fill="#040504"/>
      <path id="Path_18971" data-name="Path 18971" d="M353.662,80.434a5.744,5.744,0,0,0,3,.858c1.362,0,2.036-.567,2.036-1.685,0-.7-.52-1.285-1.548-1.73l-.963-.413c-1.762-.734-2.438-1.67-2.438-3.217,0-1.822,1.411-3,3.676-3a4.5,4.5,0,0,1,2.558.706v1.133a5.359,5.359,0,0,0-2.464-.629c-1.272,0-1.914.5-1.914,1.5,0,.659.4,1.1,1.439,1.576l.98.43a5.35,5.35,0,0,1,1.944,1.332,2.992,2.992,0,0,1,.584,1.931c0,1.959-1.394,3.247-3.967,3.247a4.7,4.7,0,0,1-2.926-.843Z" transform="translate(-353.239 -1.393)" fill="#f3a700"/>
      <path id="Path_18972" data-name="Path 18972" d="M362.41,82.173h-2.084v-9.6h-3.155V71.358h8.455v1.211H362.41Z" transform="translate(-350.162 -1.292)" fill="#f3a700"/>
      <path id="Path_18973" data-name="Path 18973" d="M362.582,82.173h-1.5l3.875-10.815h2.1l3.706,10.815h-2.267l-1.118-3.279H363.7Zm4.457-4.474c-.9-2.832-1.394-4.4-1.469-4.671-.169.627-.676,2.19-1.5,4.671Z" transform="translate(-346.735 -1.293)" fill="#f3a700"/>
      <path id="Path_18974" data-name="Path 18974" d="M368.722,82.173h-2.083V71.358h3.247a8.878,8.878,0,0,1,2.65.293,2.541,2.541,0,0,1,1.809,2.695,2.945,2.945,0,0,1-1.9,2.926l2.6,4.9h-2.312l-2.22-4.534c-.413.015-.736.03-.965.03h-.828Zm0-5.576h.873a3.447,3.447,0,0,0,1.884-.353,2.06,2.06,0,0,0,.706-1.76,1.834,1.834,0,0,0-.736-1.747,3.4,3.4,0,0,0-1.7-.291h-1.026Z" transform="translate(-341.862 -1.293)" fill="#f3a700"/>
      <path id="Path_18975" data-name="Path 18975" d="M376.024,82.173H373.94v-9.6h-3.155V71.358h8.455v1.211h-3.217Z" transform="translate(-338.228 -1.292)" fill="#f3a700"/>
      <path id="Path_18976" data-name="Path 18976" d="M384.26,71.358v6.418a6.177,6.177,0,0,1-.537,2.958c-.6,1.042-1.991,1.653-3.813,1.653-1.9,0-3.155-.6-3.753-1.777a6.348,6.348,0,0,1-.475-2.787V71.358h2.1v6.51a8.139,8.139,0,0,0,.231,2.192,2.12,2.12,0,0,0,2.237,1.255c1.147,0,1.9-.338,2.235-1.027a5.3,5.3,0,0,0,.383-2.359V71.358Z" transform="translate(-333.934 -1.293)" fill="#f3a700"/>
      <path id="Path_18977" data-name="Path 18977" d="M383.243,82.173h-2.085V71.358h3.325a8.624,8.624,0,0,1,2.635.308,2.73,2.73,0,0,1,1.79,2.834,2.924,2.924,0,0,1-1.914,3.093,7.213,7.213,0,0,1-2.543.383h-1.209Zm0-5.3h1.117a3.022,3.022,0,0,0,1.687-.385,2.1,2.1,0,0,0,.7-1.867,1.956,1.956,0,0,0-.734-1.822,3.393,3.393,0,0,0-1.7-.293h-1.072Z" transform="translate(-329.134 -1.293)" fill="#f3a700"/>
      <path id="Path_18978" data-name="Path 18978" d="M388.536,82.173h-1.5l3.875-10.815h2.1l3.706,10.815h-2.267l-1.118-3.279h-3.676Zm4.457-4.474c-.9-2.832-1.394-4.4-1.469-4.671-.169.627-.676,2.19-1.5,4.671Z" transform="translate(-323.982 -1.293)" fill="#040504"/>
      <path id="Path_18979" data-name="Path 18979" d="M394.674,82.173l-2.62-10.815h2.329c.98,4.429,1.593,7.353,1.839,8.792.351-1.5,1.118-4.425,2.312-8.792H400.4q1.819,6.435,2.346,8.777.228-1.334,1.775-8.777h1.548l-2.59,10.815h-2.205q-2.066-7.629-2.22-8.287-.3,1.447-2.192,8.287Z" transform="translate(-319.582 -1.293)" fill="#040504"/>
      <path id="Path_18980" data-name="Path 18980" d="M400.8,82.173h-1.5l3.875-10.815h2.1l3.708,10.815h-2.269L405.6,78.895h-3.676ZM405.26,77.7c-.9-2.832-1.393-4.4-1.469-4.671-.169.627-.676,2.19-1.5,4.671Z" transform="translate(-313.228 -1.293)" fill="#040504"/>
      <path id="Path_18981" data-name="Path 18981" d="M406.943,82.173H404.86V71.358h3.249a8.871,8.871,0,0,1,2.648.293,2.539,2.539,0,0,1,1.809,2.695,2.945,2.945,0,0,1-1.9,2.926l2.6,4.9h-2.314l-2.22-4.534c-.413.015-.736.03-.965.03h-.828Zm0-5.576h.873a3.442,3.442,0,0,0,1.884-.353,2.06,2.06,0,0,0,.706-1.76,1.834,1.834,0,0,0-.736-1.747,3.4,3.4,0,0,0-1.7-.291h-1.027Z" transform="translate(-308.355 -1.293)" fill="#040504"/>
      <path id="Path_18982" data-name="Path 18982" d="M409.8,82.171V71.358h2.879a11.238,11.238,0,0,1,2.956.293q3.012.825,3.018,4.977a6.186,6.186,0,0,1-1.132,3.937,3.411,3.411,0,0,1-1.625,1.194,11.64,11.64,0,0,1-3.583.413Zm2.083-9.663v8.5h.828a4.2,4.2,0,0,0,2.541-.6q1.241-.94,1.24-3.768c0-1.961-.488-3.217-1.469-3.751a4.636,4.636,0,0,0-2.22-.383Z" transform="translate(-304.026 -1.293)" fill="#040504"/>
      <path id="Path_18983" data-name="Path 18983" d="M414.826,80.434a5.744,5.744,0,0,0,3,.858c1.362,0,2.036-.567,2.036-1.685,0-.7-.522-1.285-1.548-1.73l-.965-.413c-1.76-.734-2.436-1.67-2.436-3.217,0-1.822,1.411-3,3.676-3a4.509,4.509,0,0,1,2.558.706v1.133a5.359,5.359,0,0,0-2.464-.629c-1.272,0-1.916.5-1.916,1.5,0,.659.4,1.1,1.441,1.576l.98.43a5.35,5.35,0,0,1,1.944,1.332,2.991,2.991,0,0,1,.582,1.931c0,1.959-1.392,3.247-3.965,3.247a4.7,4.7,0,0,1-2.926-.843Z" transform="translate(-299.618 -1.393)" fill="#040504"/>
      <path id="Path_18984" data-name="Path 18984" d="M420.969,71.032a8.943,8.943,0,0,1-.351,2.222,5.179,5.179,0,0,1-.8,1.715h-1.24a12.4,12.4,0,0,0,.537-1.869,11.863,11.863,0,0,0,.244-2.068Z" transform="translate(-296.327 -1.578)" fill="#040504"/>
      <path id="Path_18985" data-name="Path 18985" d="M427.457,82.058H420.2V81.017a37.883,37.883,0,0,0,3.584-3.34,4.221,4.221,0,0,0,1.255-2.924c0-1.349-.627-2.023-1.9-2.023a4.091,4.091,0,0,0-2.389.843V72.561a3.648,3.648,0,0,1,1.394-.781,4.988,4.988,0,0,1,1.623-.291c2.282,0,3.431,1.01,3.431,3.048a4.54,4.54,0,0,1-1.454,3.2,25.313,25.313,0,0,1-3.37,2.851c.843-.017,2.543-.017,5.086-.017Z" transform="translate(-294.911 -1.178)" fill="#f3a700"/>
      <path id="Path_18986" data-name="Path 18986" d="M428.417,82.257c-2.5,0-3.813-1.578-3.813-5.362a6.492,6.492,0,0,1,1.057-4.134,3.522,3.522,0,0,1,2.847-1.272c2.53,0,3.77,1.5,3.77,5.253,0,3.922-1.334,5.516-3.86,5.516m1.392-8.747a1.354,1.354,0,0,0-1.317-.965c-1.225,0-1.807,1.179-1.807,4.32a9.091,9.091,0,0,0,.43,3.416,1.409,1.409,0,0,0,1.347.933,1.393,1.393,0,0,0,1.347-.948,10.09,10.09,0,0,0,.4-3.416,9.874,9.874,0,0,0-.4-3.34" transform="translate(-291.046 -1.178)" fill="#f3a700"/>
      <path id="Path_18987" data-name="Path 18987" d="M436.353,82.058h-7.261V81.017a37.653,37.653,0,0,0,3.584-3.34,4.221,4.221,0,0,0,1.255-2.924c0-1.349-.627-2.023-1.9-2.023a4.1,4.1,0,0,0-2.389.843V72.561a3.676,3.676,0,0,1,1.394-.781,5,5,0,0,1,1.623-.291c2.282,0,3.431,1.01,3.431,3.048a4.54,4.54,0,0,1-1.454,3.2,25.32,25.32,0,0,1-3.371,2.851c.843-.017,2.543-.017,5.086-.017Z" transform="translate(-287.112 -1.178)" fill="#f3a700"/>
      <path id="Path_18988" data-name="Path 18988" d="M440.8,82.058H433.54V81.017a37.656,37.656,0,0,0,3.584-3.34,4.221,4.221,0,0,0,1.255-2.924c0-1.349-.627-2.023-1.9-2.023a4.1,4.1,0,0,0-2.389.843V72.561a3.676,3.676,0,0,1,1.394-.781,5,5,0,0,1,1.623-.291c2.282,0,3.431,1.01,3.431,3.048a4.533,4.533,0,0,1-1.454,3.2,25.319,25.319,0,0,1-3.37,2.851c.843-.017,2.543-.017,5.086-.017Z" transform="translate(-283.212 -1.178)" fill="#f3a700"/>
      <path id="Path_18989" data-name="Path 18989" d="M354.594,87.063h-.711V83.372h1.109a3.055,3.055,0,0,1,.9.1.87.87,0,0,1,.617.921,1.006,1.006,0,0,1-.649,1l.89,1.672h-.79l-.758-1.548c-.141.006-.251.013-.33.013h-.281Zm0-1.9h.3a1.192,1.192,0,0,0,.642-.118.706.706,0,0,0,.24-.6.628.628,0,0,0-.25-.6,1.169,1.169,0,0,0-.582-.1h-.349Z" transform="translate(-353.045 9.24)" fill="#040504"/>
      <path id="Path_18990" data-name="Path 18990" d="M357.944,87.064h-2.264V83.373h2.143v.413h-1.432v1.156h1.344v.411h-1.344v1.3h1.553Z" transform="translate(-351.47 9.24)" fill="#040504"/>
      <path id="Path_18991" data-name="Path 18991" d="M357.921,87.063l-.893-3.691h.794c.336,1.513.544,2.511.627,3,.122-.514.383-1.513.79-3h.64q.619,2.2.8,3c.051-.3.255-1.3.6-3h.529l-.884,3.691h-.753q-.7-2.6-.758-2.828c-.068.33-.319,1.271-.747,2.828Z" transform="translate(-350.288 9.24)" fill="#040504"/>
      <path id="Path_18992" data-name="Path 18992" d="M360.125,87.063h-.512l1.323-3.691h.717l1.265,3.691h-.775l-.381-1.118h-1.254Zm1.522-1.526q-.464-1.453-.5-1.6c-.056.214-.229.747-.51,1.6Z" transform="translate(-348.022 9.24)" fill="#040504"/>
      <path id="Path_18993" data-name="Path 18993" d="M362.334,87.063h-.713V83.372h1.111a3.055,3.055,0,0,1,.9.1.868.868,0,0,1,.616.921,1,1,0,0,1-.647,1l.89,1.672h-.79l-.758-1.548c-.141.006-.253.013-.33.013h-.281Zm0-1.9h.3a1.192,1.192,0,0,0,.642-.118.711.711,0,0,0,.24-.6.628.628,0,0,0-.25-.6,1.174,1.174,0,0,0-.582-.1h-.349Z" transform="translate(-346.261 9.24)" fill="#040504"/>
      <path id="Path_18994" data-name="Path 18994" d="M363.418,87.064V83.373h.983a3.9,3.9,0,0,1,1.01.1c.685.188,1.03.751,1.03,1.7a2.124,2.124,0,0,1-.387,1.344,1.18,1.18,0,0,1-.555.409,4.042,4.042,0,0,1-1.224.141Zm.711-3.3v2.9h.283a1.449,1.449,0,0,0,.867-.2,1.546,1.546,0,0,0,.424-1.286q0-1-.5-1.282a1.586,1.586,0,0,0-.758-.131Z" transform="translate(-344.686 9.24)" fill="#040504"/>
      <rect id="Rectangle_5668" data-name="Rectangle 5668" width="0.717" height="3.691" transform="translate(22.397 92.613)" fill="#040504"/>
      <path id="Path_18995" data-name="Path 18995" d="M366.182,87.063V83.372h.873c.863,1.471,1.4,2.406,1.61,2.807-.015-.548-.026-1.484-.026-2.807h.465v3.691h-.753l-1.725-3.051c.009.518.015,1.531.015,3.051Z" transform="translate(-342.263 9.24)" fill="#040504"/>
      <path id="Path_18996" data-name="Path 18996" d="M371.145,86.889a3.171,3.171,0,0,1-1.364.276c-1.087,0-1.7-.595-1.7-1.865,0-1.317.653-1.967,1.83-1.967a1.793,1.793,0,0,1,1.045.251v.387a2.274,2.274,0,0,0-.987-.22q-1.146,0-1.145,1.513,0,1.5,1.049,1.5a1.846,1.846,0,0,0,.586-.084V85.6H369.7v-.4h1.447Z" transform="translate(-340.597 9.205)" fill="#040504"/>
      <path id="Path_18997" data-name="Path 18997" d="M372.307,87.166c-1.094,0-1.638-.64-1.638-1.91a2,2,0,0,1,.471-1.453,1.656,1.656,0,0,1,1.224-.469c1.083,0,1.616.586,1.616,1.862q0,1.968-1.672,1.971m.041-3.477q-.94,0-.94,1.558c0,1.135.323,1.563.914,1.563s.92-.443.92-1.569c0-1.092-.281-1.552-.893-1.552" transform="translate(-338.329 9.206)" fill="#040504"/>
      <path id="Path_18998" data-name="Path 18998" d="M375.695,83.372v2.192a2.118,2.118,0,0,1-.182,1.01,1.438,1.438,0,0,1-1.3.563,1.3,1.3,0,0,1-1.28-.6,2.16,2.16,0,0,1-.163-.953V83.372h.717v2.222a2.772,2.772,0,0,0,.079.749.723.723,0,0,0,.762.428c.394,0,.649-.114.764-.351a1.78,1.78,0,0,0,.131-.8V83.372Z" transform="translate(-336.49 9.24)" fill="#040504"/>
      <path id="Path_18999" data-name="Path 18999" d="M376.355,87.064h-.712V83.786h-1.077v-.413h2.886v.413h-1.1Z" transform="translate(-334.912 9.24)" fill="#040504"/>
      <path id="Path_19000" data-name="Path 19000" d="M376.2,86.471a1.961,1.961,0,0,0,1.025.293c.464,0,.694-.193.694-.574,0-.24-.176-.441-.527-.591l-.33-.141a1.1,1.1,0,0,1-.831-1.1c0-.623.482-1.027,1.255-1.027a1.552,1.552,0,0,1,.875.242v.387a1.825,1.825,0,0,0-.844-.214c-.432,0-.653.171-.653.512,0,.223.137.375.492.539l.334.146a1.789,1.789,0,0,1,.664.454,1.018,1.018,0,0,1,.2.659c0,.668-.477,1.107-1.353,1.107a1.6,1.6,0,0,1-1-.287Z" transform="translate(-333.483 9.205)" fill="#040504"/>
      <path id="Path_19001" data-name="Path 19001" d="M379.294,87.064h-.712V83.786h-1.077v-.413h2.886v.413h-1.1Z" transform="translate(-332.336 9.24)" fill="#040504"/>
      <path id="Path_19002" data-name="Path 19002" d="M379.464,87.063h-.512l1.321-3.691h.717l1.267,3.691h-.775l-.383-1.118h-1.254Zm1.52-1.526q-.462-1.453-.5-1.6c-.056.214-.229.747-.512,1.6Z" transform="translate(-331.068 9.24)" fill="#040504"/>
      <path id="Path_19003" data-name="Path 19003" d="M380.96,87.063V83.372h.873c.863,1.471,1.4,2.406,1.612,2.807-.017-.548-.028-1.484-.028-2.807h.467v3.691h-.754L381.4,84.012c.009.518.015,1.531.015,3.051Z" transform="translate(-329.307 9.24)" fill="#040504"/>
      <path id="Path_19004" data-name="Path 19004" d="M382.946,87.064V83.373h.983a3.9,3.9,0,0,1,1.01.1c.685.188,1.03.751,1.03,1.7a2.124,2.124,0,0,1-.387,1.344,1.181,1.181,0,0,1-.556.409,4.049,4.049,0,0,1-1.224.141Zm.711-3.3v2.9h.283a1.449,1.449,0,0,0,.867-.2,1.546,1.546,0,0,0,.424-1.286q0-1-.5-1.282a1.586,1.586,0,0,0-.758-.131Z" transform="translate(-327.566 9.24)" fill="#040504"/>
      <rect id="Rectangle_5669" data-name="Rectangle 5669" width="0.717" height="3.691" transform="translate(59.045 92.613)" fill="#040504"/>
      <path id="Path_19005" data-name="Path 19005" d="M385.71,87.063V83.372h.873q1.292,2.207,1.61,2.807-.025-.822-.026-2.807h.465v3.691h-.753l-1.725-3.051c.009.518.015,1.531.015,3.051Z" transform="translate(-325.143 9.24)" fill="#040504"/>
      <path id="Path_19006" data-name="Path 19006" d="M390.673,86.889a3.171,3.171,0,0,1-1.364.276c-1.087,0-1.7-.595-1.7-1.865,0-1.317.653-1.967,1.83-1.967a1.793,1.793,0,0,1,1.045.251v.387a2.276,2.276,0,0,0-.989-.22q-1.143,0-1.143,1.513,0,1.5,1.049,1.5a1.847,1.847,0,0,0,.586-.084V85.6h-.762v-.4h1.447Z" transform="translate(-323.478 9.205)" fill="#040504"/>
      <path id="Path_19007" data-name="Path 19007" d="M390.178,86.471a1.971,1.971,0,0,0,1.025.293c.465,0,.7-.193.7-.574,0-.24-.178-.441-.527-.591l-.33-.141a1.1,1.1,0,0,1-.831-1.1c0-.623.48-1.027,1.254-1.027a1.547,1.547,0,0,1,.874.242v.387a1.818,1.818,0,0,0-.843-.214c-.434,0-.653.171-.653.512,0,.223.135.375.49.539l.336.146a1.781,1.781,0,0,1,.662.454,1.018,1.018,0,0,1,.2.659c0,.668-.477,1.107-1.355,1.107a1.6,1.6,0,0,1-1-.287Z" transform="translate(-321.226 9.205)" fill="#040504"/>
      <path id="Path_19008" data-name="Path 19008" d="M393.276,87.064h-.712V83.786h-1.077v-.413h2.886v.413h-1.1Z" transform="translate(-320.079 9.24)" fill="#040504"/>
      <path id="Path_19009" data-name="Path 19009" d="M393.445,87.063h-.512l1.323-3.691h.717l1.265,3.691h-.775l-.381-1.118h-1.254Zm1.522-1.526c-.308-.968-.477-1.5-.5-1.6-.056.214-.229.747-.51,1.6Z" transform="translate(-318.811 9.24)" fill="#040504"/>
      <path id="Path_19010" data-name="Path 19010" d="M395.654,87.063h-.713V83.372h1.111a3.054,3.054,0,0,1,.9.1.868.868,0,0,1,.616.921,1,1,0,0,1-.648,1l.89,1.672h-.79l-.758-1.548c-.141.006-.253.013-.33.013h-.281Zm0-1.9h.3a1.192,1.192,0,0,0,.642-.118.711.711,0,0,0,.24-.6.627.627,0,0,0-.25-.6,1.173,1.173,0,0,0-.582-.1h-.349Z" transform="translate(-317.051 9.24)" fill="#040504"/>
      <path id="Path_19011" data-name="Path 19011" d="M398.257,87.064h-.712V83.786h-1.077v-.413h2.886v.413h-1.1Z" transform="translate(-315.712 9.24)" fill="#040504"/>
      <path id="Path_19012" data-name="Path 19012" d="M401.179,83.372v2.192a2.118,2.118,0,0,1-.182,1.01,1.438,1.438,0,0,1-1.3.563,1.3,1.3,0,0,1-1.28-.6,2.16,2.16,0,0,1-.163-.953V83.372h.717v2.222a2.772,2.772,0,0,0,.079.749.723.723,0,0,0,.762.428c.394,0,.649-.114.764-.351a1.807,1.807,0,0,0,.131-.8V83.372Z" transform="translate(-314.149 9.24)" fill="#040504"/>
      <path id="Path_19013" data-name="Path 19013" d="M400.943,87.063h-.711V83.372h1.134a2.935,2.935,0,0,1,.9.105.936.936,0,0,1,.612.968,1,1,0,0,1-.653,1.055,2.43,2.43,0,0,1-.867.131h-.413Zm0-1.809h.381a1.04,1.04,0,0,0,.576-.129.723.723,0,0,0,.24-.638.668.668,0,0,0-.251-.621,1.145,1.145,0,0,0-.58-.1h-.366Z" transform="translate(-312.412 9.24)" fill="#040504"/>
      <path id="Path_19014" data-name="Path 19014" d="M401.853,86.471a1.971,1.971,0,0,0,1.025.293c.465,0,.7-.193.7-.574,0-.24-.178-.441-.529-.591l-.328-.141a1.1,1.1,0,0,1-.831-1.1c0-.623.48-1.027,1.254-1.027a1.547,1.547,0,0,1,.875.242v.387a1.818,1.818,0,0,0-.843-.214c-.433,0-.653.171-.653.512,0,.223.135.375.49.539l.336.146a1.806,1.806,0,0,1,.664.454,1.028,1.028,0,0,1,.2.659c0,.668-.477,1.107-1.355,1.107a1.6,1.6,0,0,1-1-.287Z" transform="translate(-310.991 9.205)" fill="#040504"/>
      <rect id="Rectangle_5670" data-name="Rectangle 5670" width="0.717" height="3.691" transform="translate(95.002 92.613)" fill="#040504"/>
      <path id="Path_19015" data-name="Path 19015" d="M404.87,87.063V83.372h.873c.863,1.471,1.4,2.406,1.61,2.807-.015-.548-.026-1.484-.026-2.807h.467v3.691h-.754l-1.725-3.051c.009.518.015,1.531.015,3.051Z" transform="translate(-308.346 9.24)" fill="#040504"/>
      <path id="Path_19016" data-name="Path 19016" d="M408.217,87.064H407.5V83.373h2.155v.413h-1.443v1.229h1.322v.413h-1.322Z" transform="translate(-306.036 9.24)" fill="#040504"/>
      <path id="Path_19017" data-name="Path 19017" d="M409.662,87.063h-.711V83.372h1.109a3.054,3.054,0,0,1,.9.1.87.87,0,0,1,.617.921,1,1,0,0,1-.649,1l.89,1.672h-.79l-.758-1.548c-.141.006-.251.013-.33.013h-.282Zm0-1.9h.3a1.183,1.183,0,0,0,.642-.118.706.706,0,0,0,.24-.6.628.628,0,0,0-.25-.6,1.165,1.165,0,0,0-.58-.1h-.351Z" transform="translate(-304.769 9.24)" fill="#040504"/>
      <path id="Path_19018" data-name="Path 19018" d="M411.073,87.063h-.512l1.323-3.691h.717l1.265,3.691h-.775l-.381-1.118h-1.254Zm1.522-1.526c-.308-.968-.477-1.5-.5-1.6-.056.214-.229.747-.51,1.6Z" transform="translate(-303.357 9.24)" fill="#040504"/>
      <path id="Path_19019" data-name="Path 19019" d="M412.57,87.063V83.372h.873q1.292,2.207,1.61,2.807-.025-.822-.026-2.807h.465v3.691h-.753l-1.725-3.051c.009.518.015,1.531.015,3.051Z" transform="translate(-301.596 9.24)" fill="#040504"/>
      <path id="Path_19020" data-name="Path 19020" d="M417.2,83.966a1.939,1.939,0,0,0-.852-.21c-.758,0-1.135.5-1.135,1.513s.42,1.468,1.1,1.468a1.769,1.769,0,0,0,.91-.223v.372a1.875,1.875,0,0,1-1.047.281q-1.709,0-1.708-1.879c0-1.312.668-1.954,1.777-1.954a1.651,1.651,0,0,1,.951.25Z" transform="translate(-299.93 9.206)" fill="#040504"/>
      <path id="Path_19021" data-name="Path 19021" d="M416.9,87.064h-.712V83.373h.712v1.569H418.4V83.373h.722v3.691H418.4v-1.71H416.9Z" transform="translate(-298.422 9.24)" fill="#040504"/>
      <rect id="Rectangle_5671" data-name="Rectangle 5671" width="0.717" height="3.691" transform="translate(121.497 92.613)" fill="#040504"/>
      <path id="Path_19022" data-name="Path 19022" d="M418.885,86.471a1.966,1.966,0,0,0,1.025.293c.465,0,.7-.193.7-.574,0-.24-.178-.441-.529-.591l-.328-.141a1.1,1.1,0,0,1-.831-1.1c0-.623.48-1.027,1.254-1.027a1.547,1.547,0,0,1,.875.242v.387a1.824,1.824,0,0,0-.843-.214c-.434,0-.653.171-.653.512,0,.223.135.375.49.539l.336.146a1.8,1.8,0,0,1,.663.454,1.018,1.018,0,0,1,.2.659c0,.668-.475,1.107-1.353,1.107a1.6,1.6,0,0,1-1-.287Z" transform="translate(-296.06 9.205)" fill="#040504"/>
      <path id="Path_19023" data-name="Path 19023" d="M422.706,87.064h-2.264V83.373h2.145v.413h-1.433v1.156H422.5v.411h-1.344v1.3h1.553Z" transform="translate(-294.695 9.24)" fill="#040504"/>
      <path id="Path_19024" data-name="Path 19024" d="M424.885,87.064H422.62V83.373h2.143v.413h-1.432v1.156h1.344v.411h-1.344v1.3h1.553Z" transform="translate(-292.785 9.24)" fill="#040504"/>
      <path id="Path_19025" data-name="Path 19025" d="M426.793,83.966a1.94,1.94,0,0,0-.854-.21c-.758,0-1.133.5-1.133,1.513s.418,1.468,1.1,1.468a1.769,1.769,0,0,0,.91-.223v.372a1.879,1.879,0,0,1-1.047.281q-1.709,0-1.708-1.879c0-1.312.668-1.954,1.775-1.954a1.654,1.654,0,0,1,.953.25Z" transform="translate(-291.52 9.206)" fill="#040504"/>
      <path id="Path_19026" data-name="Path 19026" d="M427.336,87.166c-1.094,0-1.638-.64-1.638-1.91a1.99,1.99,0,0,1,.473-1.453,1.652,1.652,0,0,1,1.222-.469c1.083,0,1.616.586,1.616,1.862q0,1.968-1.672,1.971m.041-3.477q-.94,0-.94,1.558c0,1.135.323,1.563.914,1.563s.919-.443.919-1.569c0-1.092-.281-1.552-.893-1.552" transform="translate(-290.087 9.206)" fill="#040504"/>
      <path id="Path_19027" data-name="Path 19027" d="M427.68,86.471a1.961,1.961,0,0,0,1.025.293c.464,0,.694-.193.694-.574,0-.24-.176-.441-.527-.591l-.33-.141a1.1,1.1,0,0,1-.831-1.1c0-.623.482-1.027,1.255-1.027a1.541,1.541,0,0,1,.873.242v.387a1.812,1.812,0,0,0-.843-.214c-.432,0-.653.171-.653.512,0,.223.137.375.492.539l.334.146a1.789,1.789,0,0,1,.664.454,1.017,1.017,0,0,1,.2.659c0,.668-.477,1.107-1.353,1.107a1.6,1.6,0,0,1-1-.287Z" transform="translate(-288.35 9.205)" fill="#040504"/>
      <path id="Path_19028" data-name="Path 19028" d="M430.965,87.063h-.715V85.57l-1.25-2.2h.831q.768,1.419.925,1.747l.936-1.747h.559l-1.287,2.2Z" transform="translate(-287.192 9.24)" fill="#040504"/>
      <path id="Path_19029" data-name="Path 19029" d="M430.788,86.471a1.973,1.973,0,0,0,1.027.293c.464,0,.694-.193.694-.574,0-.24-.176-.441-.527-.591l-.33-.141a1.1,1.1,0,0,1-.831-1.1c0-.623.482-1.027,1.255-1.027a1.541,1.541,0,0,1,.873.242v.387a1.812,1.812,0,0,0-.843-.214c-.432,0-.653.171-.653.512,0,.223.137.375.492.539l.334.146a1.79,1.79,0,0,1,.664.454,1.018,1.018,0,0,1,.2.659c0,.668-.477,1.107-1.353,1.107a1.61,1.61,0,0,1-1-.287Z" transform="translate(-285.625 9.205)" fill="#040504"/>
      <path id="Path_19030" data-name="Path 19030" d="M433.886,87.064h-.712V83.786H432.1v-.413h2.886v.413h-1.1Z" transform="translate(-284.477 9.24)" fill="#040504"/>
      <path id="Path_19031" data-name="Path 19031" d="M436.139,87.064h-2.264V83.373h2.145v.413h-1.433v1.156h1.344v.411h-1.344v1.3h1.553Z" transform="translate(-282.919 9.24)" fill="#040504"/>
      <path id="Path_19032" data-name="Path 19032" d="M435.393,87.063V83.372h.936q.69,1.985.908,2.716.166-.591.89-2.716h.936v3.691h-.679c0-1.505.006-2.573.015-3.194q-.312,1.036-.989,3.012h-.574l-.987-3.012q0,1.25,0,3.194Z" transform="translate(-281.588 9.24)" fill="#040504"/>
    </g>
  </g>
</svg>
