<svg xmlns="http://www.w3.org/2000/svg" width="213.701" height="69.177" viewBox="0 0 213.701 69.177">
  <g id="startup" transform="translate(-461.948 -53.043)">
    <g id="Group_18364" data-name="Group 18364" transform="translate(461.948 53.043)">
      <g id="Group_18363" data-name="Group 18363">
        <path id="Path_18958" data-name="Path 18958" d="M657.537,61.554h1.579c.916-.018,1.777.015,2.589.079a6.43,6.43,0,0,1,2.142.51,3.111,3.111,0,0,1,1.467,1.363,5.493,5.493,0,0,1,.541,2.637,4.908,4.908,0,0,1-.574,2.541,3.165,3.165,0,0,1-1.52,1.3,6.913,6.913,0,0,1-2.16.48c-.8.063-1.625.079-2.485.071h-1.579Zm-9.369,28.49h9.369V78.094h5.308a16.6,16.6,0,0,0,6.937-1.284,9.037,9.037,0,0,0,4.335-4,14.52,14.52,0,0,0,1.49-6.955,13.907,13.907,0,0,0-.954-5.348,9.52,9.52,0,0,0-2.686-3.678,11.3,11.3,0,0,0-4.145-2.145A19.1,19.1,0,0,0,662.51,54H648.168ZM632.872,54V72.979c.008.947-.015,1.878-.081,2.82a14.582,14.582,0,0,1-.421,2.653,6.741,6.741,0,0,1-1.013,2.221,4.7,4.7,0,0,1-1.871,1.541,8.088,8.088,0,0,1-5.945,0,4.628,4.628,0,0,1-1.866-1.541,6.594,6.594,0,0,1-1.018-2.221,14.592,14.592,0,0,1-.421-2.653c-.056-.942-.089-1.873-.081-2.82V54h-9.369V74.268c-.008,1.163.025,2.312.089,3.45a20.662,20.662,0,0,0,.454,3.34,12.963,12.963,0,0,0,1.13,3.122,11.21,11.21,0,0,0,2.1,2.8,11.566,11.566,0,0,0,2.548,1.878,14.917,14.917,0,0,0,2.98,1.236,19.506,19.506,0,0,0,3.2.693,24.989,24.989,0,0,0,6.437,0,19.511,19.511,0,0,0,3.2-.693,15.176,15.176,0,0,0,2.988-1.236,11.7,11.7,0,0,0,2.541-1.878,10.911,10.911,0,0,0,2.1-2.8,13.067,13.067,0,0,0,1.13-3.122,21.25,21.25,0,0,0,.457-3.34c.071-1.137.094-2.287.086-3.45V54Zm-33.034,7.935h7.744V54H582.725v7.935h7.744V90.044h9.369Zm-37.478-.764h.909a14.942,14.942,0,0,1,2.31.152,6.739,6.739,0,0,1,2.089.622,3.727,3.727,0,0,1,1.521,1.361,5.075,5.075,0,0,1,0,4.716,3.645,3.645,0,0,1-1.521,1.355,7.032,7.032,0,0,1-2.089.63,15.6,15.6,0,0,1-2.31.15h-.909Zm9.275,14.1A9.628,9.628,0,0,0,575.029,74,8.879,8.879,0,0,0,577.5,71.7a9.959,9.959,0,0,0,1.513-3.054,12.382,12.382,0,0,0,.51-3.559,12.16,12.16,0,0,0-.954-4.98,9.084,9.084,0,0,0-2.637-3.452,11.129,11.129,0,0,0-3.967-2.005A17.838,17.838,0,0,0,567,54H552.992V90.044h9.369V76.182h.1L571.3,90.044h11.664Zm-36.427,1.338h-7.792l3.873-11.473h.1Zm2.533,7.171,2.343,6.262h9.993L536.5,54H526.271L512.406,90.044h9.945l2.485-6.262ZM507.388,61.935h7.744V54h-24.86v7.935h7.744V90.044h9.371Zm-20.271-5.927a22.271,22.271,0,0,0-3.536-1.576,26.787,26.787,0,0,0-3.911-1.02,21.772,21.772,0,0,0-3.833-.368,14.294,14.294,0,0,0-4.988.863,11.488,11.488,0,0,0-3.937,2.444,11.052,11.052,0,0,0-2.579,3.807,13.254,13.254,0,0,0-.927,4.98,12.42,12.42,0,0,0,.454,3.576,7.426,7.426,0,0,0,1.284,2.543,7.973,7.973,0,0,0,2.038,1.769,15.194,15.194,0,0,0,2.7,1.256c1.005.368,2.1.711,3.275,1.038.406.109.86.246,1.363.4a13.931,13.931,0,0,1,1.505.541,7.1,7.1,0,0,1,1.394.756,3.5,3.5,0,0,1,1.028,1.036,2.471,2.471,0,0,1,.4,1.378,3.279,3.279,0,0,1-.4,1.632,3.333,3.333,0,0,1-1.043,1.132,4.841,4.841,0,0,1-1.457.663,6.754,6.754,0,0,1-1.642.206,9.6,9.6,0,0,1-3.059-.508,13.123,13.123,0,0,1-2.774-1.34,19.542,19.542,0,0,1-2.485-1.881l-4.013,7.554a23.619,23.619,0,0,0,3.909,2.216,22.323,22.323,0,0,0,4.272,1.4,20.651,20.651,0,0,0,4.485.495,18.8,18.8,0,0,0,3.642-.35,15.408,15.408,0,0,0,3.488-1.1,13.031,13.031,0,0,0,3.1-1.942,9.357,9.357,0,0,0,2.239-2.807,12.028,12.028,0,0,0,1.162-3.328A18.5,18.5,0,0,0,488.6,77.9a9.83,9.83,0,0,0-.685-3.792,8.041,8.041,0,0,0-1.878-2.767,11.273,11.273,0,0,0-2.823-1.942,20.656,20.656,0,0,0-3.505-1.348l-2.389-.718c-.414-.127-.86-.284-1.34-.462a8,8,0,0,1-1.345-.668,3.5,3.5,0,0,1-1.051-.965,2.307,2.307,0,0,1-.424-1.348,2.462,2.462,0,0,1,.383-1.322,3.331,3.331,0,0,1,.98-.939,5.045,5.045,0,0,1,1.3-.566,5.476,5.476,0,0,1,1.353-.183,9.081,9.081,0,0,1,3.323.652,10.894,10.894,0,0,1,2.891,1.739Z" transform="translate(-461.906 -53.043)" fill="#f36a10"/>
        <path id="Path_18959" data-name="Path 18959" d="M619.6,75.763a2.692,2.692,0,0,1,1.434.393,3.6,3.6,0,0,1,1.069,1.036,6.518,6.518,0,0,1,.741,1.454,10.689,10.689,0,0,1,.475,1.65,15.779,15.779,0,0,1,.254,1.622c.048.52.071.98.071,1.378s-.023.861-.071,1.378a16.317,16.317,0,0,1-.254,1.64,10.843,10.843,0,0,1-.475,1.663,6.713,6.713,0,0,1-.741,1.472,3.579,3.579,0,0,1-1.069,1.046,2.775,2.775,0,0,1-2.866,0A3.67,3.67,0,0,1,617.1,89.45a6.608,6.608,0,0,1-.741-1.472,10.574,10.574,0,0,1-.475-1.663,15.646,15.646,0,0,1-.254-1.64c-.048-.518-.068-.98-.068-1.378s.02-.858.068-1.378a15.139,15.139,0,0,1,.254-1.622,10.425,10.425,0,0,1,.475-1.65,6.416,6.416,0,0,1,.741-1.454,3.7,3.7,0,0,1,1.069-1.036,2.683,2.683,0,0,1,1.432-.393m0-5.594a9.883,9.883,0,0,0-3.28.536,8.681,8.681,0,0,0-2.62,1.47,9.968,9.968,0,0,0-1.988,2.2,13.063,13.063,0,0,0-1.383,2.729,16.784,16.784,0,0,0-.81,3.054,19.22,19.22,0,0,0,0,6.348,16.633,16.633,0,0,0,.8,3.056,12.945,12.945,0,0,0,1.378,2.724,9.831,9.831,0,0,0,1.982,2.2,8.69,8.69,0,0,0,2.625,1.472,10.387,10.387,0,0,0,6.585,0,8.571,8.571,0,0,0,2.625-1.472,9.652,9.652,0,0,0,1.982-2.2,12.838,12.838,0,0,0,1.381-2.724,17.287,17.287,0,0,0,.81-3.056,19.618,19.618,0,0,0,.256-3.173,18.773,18.773,0,0,0-.264-3.175,16.789,16.789,0,0,0-.807-3.054,13.052,13.052,0,0,0-1.384-2.729,10.034,10.034,0,0,0-1.99-2.2,8.646,8.646,0,0,0-2.62-1.47,9.874,9.874,0,0,0-3.282-.536M598.286,90.15l3.782-3.526a18.808,18.808,0,0,0,1.665-1.678,9.964,9.964,0,0,0,1.239-1.759,8.014,8.014,0,0,0,.777-1.982,10.048,10.048,0,0,0,.264-2.371,8.8,8.8,0,0,0-.49-2.937,8.084,8.084,0,0,0-1.348-2.4,8.455,8.455,0,0,0-2.053-1.8,9.634,9.634,0,0,0-2.576-1.13,10.963,10.963,0,0,0-2.942-.4,10.8,10.8,0,0,0-3.884.68,8.36,8.36,0,0,0-2.955,1.914,8.616,8.616,0,0,0-1.906,2.96,11.555,11.555,0,0,0-.759,3.823h6.983c-.033-.178-.058-.355-.076-.528s-.023-.345-.023-.505a3.571,3.571,0,0,1,.309-1.505,2.517,2.517,0,0,1,.894-1.066,2.583,2.583,0,0,1,1.449-.4,2.5,2.5,0,0,1,1.142.274,2.773,2.773,0,0,1,.878.729,3.352,3.352,0,0,1,.561,1.013,3.386,3.386,0,0,1,.2,1.152,6.5,6.5,0,0,1-.406,2.2,10.142,10.142,0,0,1-1.023,2.038,12.988,12.988,0,0,1-1.353,1.744l-9.958,10.831h19.593V90.15ZM578.693,73.662h5.95V71.141h-14.55v2.521h5.884V95.516h2.716Zm-12.06-2.521h-2.716V95.516h2.716ZM532.46,95.516h2.779l3.137-16.486h.063l7.826,17.489,7.856-17.489h.063l3.137,16.486H560.1L555.155,69.75l-8.889,20.464L537.407,69.75Zm-29.615,0h2.78l3.137-16.486h.063l7.826,17.489,7.856-17.489h.063l3.137,16.486h2.779L525.541,69.75l-8.889,20.464L507.793,69.75ZM484.481,71.141h-2.714V86.4c-.008.7.02,1.358.074,1.99a10.011,10.011,0,0,0,.322,1.815,6.89,6.89,0,0,0,.724,1.675,7.389,7.389,0,0,0,1.272,1.569,8.221,8.221,0,0,0,1.858,1.363,9.174,9.174,0,0,0,2.155.84,9.514,9.514,0,0,0,2.292.287,9.332,9.332,0,0,0,2.419-.317,8.87,8.87,0,0,0,2.241-.939,8.3,8.3,0,0,0,1.9-1.523,7.236,7.236,0,0,0,1.152-1.533,6.586,6.586,0,0,0,.642-1.6,9.929,9.929,0,0,0,.282-1.731c.041-.6.063-1.226.058-1.891V71.141h-2.716V85.658c.005.477.005.965-.005,1.46a11.806,11.806,0,0,1-.109,1.47,6.439,6.439,0,0,1-.348,1.4,4.394,4.394,0,0,1-.734,1.262,5.741,5.741,0,0,1-1.353,1.163,6.758,6.758,0,0,1-1.665.746,6.369,6.369,0,0,1-1.767.256,6.436,6.436,0,0,1-1.828-.274,6.525,6.525,0,0,1-1.734-.787,5.054,5.054,0,0,1-1.355-1.267,4.917,4.917,0,0,1-.779-1.7,8.76,8.76,0,0,1-.259-1.863c-.028-.64-.033-1.262-.028-1.868ZM476.333,74.5a7.341,7.341,0,0,0-1.6-2.041,6.8,6.8,0,0,0-2.145-1.295,7.278,7.278,0,0,0-2.554-.447,7.812,7.812,0,0,0-2.592.437,6.79,6.79,0,0,0-2.178,1.251,5.824,5.824,0,0,0-1.5,1.955,6,6,0,0,0-.556,2.566,5.709,5.709,0,0,0,.432,2.262,5.162,5.162,0,0,0,1.152,1.68,8.591,8.591,0,0,0,1.693,1.267,21.582,21.582,0,0,0,2.026,1.031l1.487.647c.571.251,1.127.515,1.66.792a7.869,7.869,0,0,1,1.439.952,4.081,4.081,0,0,1,1.013,1.295,4.136,4.136,0,0,1,.381,1.81,4.543,4.543,0,0,1-.414,1.9,4.692,4.692,0,0,1-1.109,1.5,5.188,5.188,0,0,1-1.6.992,5.24,5.24,0,0,1-1.886.355,4.647,4.647,0,0,1-3.287-1.33,5.3,5.3,0,0,1-1.051-1.439,5.857,5.857,0,0,1-.543-1.757l-2.65.744a8.308,8.308,0,0,0,1.444,3.313,7.236,7.236,0,0,0,2.617,2.2,8.077,8.077,0,0,0,3.533.792,7.954,7.954,0,0,0,2.985-.576,7.6,7.6,0,0,0,2.437-1.592,7.276,7.276,0,0,0,1.637-2.386,7.468,7.468,0,0,0,.6-2.98,6.374,6.374,0,0,0-.467-2.51,5.694,5.694,0,0,0-1.267-1.848,9.261,9.261,0,0,0-1.866-1.386,22.641,22.641,0,0,0-2.251-1.109l-1.617-.711q-.628-.274-1.295-.617a7.8,7.8,0,0,1-1.231-.784,3.726,3.726,0,0,1-.924-1.036,2.7,2.7,0,0,1-.365-1.378,3.624,3.624,0,0,1,.33-1.531,3.546,3.546,0,0,1,.878-1.2,3.989,3.989,0,0,1,1.287-.782,4.355,4.355,0,0,1,1.546-.274,4.793,4.793,0,0,1,1.795.312,3.908,3.908,0,0,1,1.348.906,6.7,6.7,0,0,1,1.061,1.432Z" transform="translate(-461.948 -27.342)" fill="#004697"/>
        <path id="Path_18960" data-name="Path 18960" d="M538.484,69.915a7.857,7.857,0,0,0-3.312.68,8.358,8.358,0,0,0-2.955,1.914,8.654,8.654,0,0,0-1.906,2.957,11.576,11.576,0,0,0-.759,3.825h6.983c-.033-.178-.058-.355-.076-.528s-.023-.345-.023-.505a3.569,3.569,0,0,1,.31-1.505,2.532,2.532,0,0,1,.893-1.066,2.589,2.589,0,0,1,1.449-.4,2.5,2.5,0,0,1,1.142.274,2.771,2.771,0,0,1,.878.729,3.35,3.35,0,0,1,.561,1.013,3.389,3.389,0,0,1,.2,1.152,6.5,6.5,0,0,1-.406,2.2,10.149,10.149,0,0,1-1.023,2.038,13.131,13.131,0,0,1-1.353,1.744L529.13,95.263h19.593V89.9h-7.986l3.782-3.526a18.108,18.108,0,0,0,1.663-1.68,9.876,9.876,0,0,0,1.241-1.757,8.059,8.059,0,0,0,.777-1.982,10.061,10.061,0,0,0,.264-2.371,8.672,8.672,0,0,0-.492-2.937,7.979,7.979,0,0,0-1.345-2.4,8.413,8.413,0,0,0-2.054-1.8A9.63,9.63,0,0,0,542,70.311a15.621,15.621,0,0,0-3.513-.4" transform="translate(-358.601 -27.088)" fill="#004697"/>
        <path id="Path_18961" data-name="Path 18961" d="M547.731,69.915a7.857,7.857,0,0,0-3.312.68,8.358,8.358,0,0,0-2.955,1.914,8.652,8.652,0,0,0-1.906,2.957,11.57,11.57,0,0,0-.759,3.825h6.983c-.033-.178-.058-.355-.076-.528s-.023-.345-.023-.505a3.571,3.571,0,0,1,.31-1.505,2.531,2.531,0,0,1,.893-1.066,2.583,2.583,0,0,1,1.449-.4,2.5,2.5,0,0,1,1.142.274,2.8,2.8,0,0,1,.878.729,3.352,3.352,0,0,1,.561,1.013,3.389,3.389,0,0,1,.2,1.152,6.5,6.5,0,0,1-.406,2.2,10.142,10.142,0,0,1-1.023,2.038,13.132,13.132,0,0,1-1.353,1.744l-9.958,10.831H557.97V89.9h-7.986l3.782-3.526a18.506,18.506,0,0,0,1.665-1.68,9.861,9.861,0,0,0,1.239-1.757,8.058,8.058,0,0,0,.777-1.982,10.055,10.055,0,0,0,.264-2.371,8.8,8.8,0,0,0-.49-2.937,8.042,8.042,0,0,0-1.348-2.4,8.413,8.413,0,0,0-2.054-1.8,9.63,9.63,0,0,0-2.576-1.13,15.619,15.619,0,0,0-3.513-.4" transform="translate(-344.376 -27.088)" fill="#004697"/>
      </g>
    </g>
  </g>
</svg>
